<svg width="247" height="26" fill="none" xmlns="http://www.w3.org/2000/svg"><g clip-path="url(#clip0)" fill="#6E6E6E"><path d="M1.558 5.95H0v14.1h1.558V5.95zm17.085 0h1.82l4.786 10.782 4.754-10.781h1.856v14.098h-1.558V8.63l-5.03 11.288h-.08l-5.03-11.266V20.05h-1.518V5.951zm189.956 0h1.821l4.789 10.782 4.754-10.781h1.853v14.098h-1.558V8.63l-5.031 11.288h-.079l-5.03-11.266V20.05h-1.519V5.951zm-161.779 0h5.172c3.116 0 5.167 1.694 5.167 4.512 0 3.041-2.487 4.614-5.427 4.614H48.38v4.973h-1.56V5.951zm4.974 7.675c2.288 0 3.789-1.25 3.789-3.141 0-2.013-1.48-3.064-3.71-3.064h-3.49v6.205h3.41zm55.309-7.675h5.937c1.698 0 3.058.523 3.926 1.412.353.373.631.814.816 1.298.185.483.275 1 .263 1.519 0 2.336-1.58 3.706-3.749 4.11l4.231 5.76h-1.914l-3.987-5.477h-3.958v5.477h-1.558l-.007-14.098zm5.8 7.19c2.073 0 3.552-1.102 3.552-2.939 0-1.73-1.303-2.777-3.53-2.777h-4.257v5.716h4.235zm22.763-5.72h-4.635V5.95h10.849v1.47h-4.635v12.63h-1.579V7.42zm20.19-1.47h1.558v6.264h7.97V5.951h1.558v14.098h-1.558v-6.344h-7.97v6.344h-1.558V5.951zM181.292 13c0-3.886 2.861-7.292 7.063-7.292 4.203 0 7.031 3.365 7.031 7.292 0 3.927-2.878 7.292-7.07 7.292s-7.024-3.361-7.024-7.292zm12.468 0c0-3.203-2.289-5.818-5.444-5.818-3.156 0-5.398 2.57-5.398 5.818 0 3.247 2.289 5.822 5.445 5.822 3.155 0 5.397-2.571 5.397-5.822zm43.158-7.05h9.981v1.452h-8.423v4.812h7.538v1.451h-7.538v4.933H247v1.451h-10.082V5.951zM87.935 19.2c0-.18-.036-.367-.065-.532-.15-1-.501-1.96-1.031-2.815a7.28 7.28 0 00-2.05-2.159 5.144 5.144 0 01-1.439.603 6.157 6.157 0 012.274 2.017 6.324 6.324 0 011.055 2.88 6.143 6.143 0 01-3.318-1.5 6.352 6.352 0 01-1.928-3.136c-.581.055-1.158.155-1.724.297a6.253 6.253 0 01-1.951 2.954 6.052 6.052 0 01-3.216 1.384c.306-2.902 2.069-4.984 5.239-5.51 1.695-.275 2.749-.4 3.926-.834 2.306-.848 3.76-2.975 4.156-5.532.025-.176.046-.367.06-.536v-.106c0-.184.022-.368.022-.559 0-.19 0-.408-.021-.61a8.023 8.023 0 00-.598-.022c-.183 0-.36 0-.546.022h-.105c-.187 0-.36.04-.554.074a7.282 7.282 0 00-3.308 1.491 7.49 7.49 0 00-2.212 2.92A7.487 7.487 0 0078.4 7.094a7.279 7.279 0 00-3.871-1.565h-.105c-.18 0-.36-.022-.547-.022-.187 0-.4 0-.597.022a8.789 8.789 0 00-.022.61c0 .188 0 .368.022.559v.106c0 .195.04.386.072.577a7.438 7.438 0 001.064 2.834 7.274 7.274 0 002.095 2.154c.458-.256.94-.464 1.44-.62a6.151 6.151 0 01-2.33-2.021 6.324 6.324 0 01-1.082-2.92 6.056 6.056 0 013.3 1.457 6.26 6.26 0 011.928 3.098c.551-.066 1.404-.15 1.75-.246a6.125 6.125 0 011.939-2.953 5.926 5.926 0 013.22-1.353c-.482 4.464-3.983 5.312-6.264 5.544-1.915.205-6.287 1.238-7.046 6.27a8.412 8.412 0 00-.068.577s-.036.066 0 .106c0 .184-.022.367-.022.559 0 .19 0 .407.022.61.197.014.396.021.597.021.184 0 .36 0 .547-.022h.104c.195 0 .393-.044.583-.077a7.276 7.276 0 003.278-1.49 7.483 7.483 0 002.195-2.896 7.487 7.487 0 002.226 2.91 7.28 7.28 0 003.866 1.55h.105c.18 0 .36.022.546.022.188 0 .4 0 .598-.022a8.77 8.77 0 00.021-.61c0-.188 0-.367-.021-.558l-.007-.103z"/><path d="M80.601 26a12.55 12.55 0 01-7.074-2.19 12.945 12.945 0 01-4.69-5.835 13.252 13.252 0 01-.725-7.511 13.085 13.085 0 013.485-6.656A12.656 12.656 0 0178.117.25c2.47-.502 5.03-.244 7.358.74a12.794 12.794 0 015.715 4.788A13.193 13.193 0 0193.335 13a13.153 13.153 0 01-3.734 9.188 12.619 12.619 0 01-9 3.812zm0-24.703a11.298 11.298 0 00-6.365 1.98 11.655 11.655 0 00-4.216 5.255 11.93 11.93 0 00-.646 6.76 11.78 11.78 0 003.14 5.989 11.394 11.394 0 005.87 3.199c2.224.45 4.528.217 6.622-.669a11.518 11.518 0 005.143-4.31A11.877 11.877 0 0092.079 13a11.843 11.843 0 00-3.366-8.276A11.36 11.36 0 0080.6 1.297z"/></g><defs><clipPath id="clip0"><path fill="#fff" d="M0 0h247v26H0z"/></clipPath></defs></svg>