<svg version="1.0" xmlns="http://www.w3.org/2000/svg" width="38.667" height="42.667" viewBox="0 0 29 32"><path d="M12.2 5.2c-.7.7-1.2 2.1-1.2 3.2 0 1.9.1 1.9 1.6-.3 1.3-1.8 1.8-2 2.5-1 1.2 1.9 1.1 3.2-.1 2.4-.9-.6-1.2-.2-1.4 2.7-.1.8 1.1 1.3 2.6 1.3 2 .1 2.4-.2 1.7-1.1-.6-.8-.7-1.4 0-1.8.5-.4 2 .8 3.2 2.6 2.7 3.7 2.9 9.6.5 13-1.8 2.5-2.1 5.8-.6 5.8.6 0 1-1.1 1-2.5 0-1.9 1-3.1 3.5-4.6 3.1-1.9 3.5-2.5 3.3-6-.1-2.2-.7-4.7-1.4-5.7-.8-1.1-.9-2.2-.3-3.5 1.3-2.4.5-3.4-3.9-4.7-3.1-.8-3.9-.7-4.9.7-1.2 1.5-1.3 1.5-1.9 0-.7-2-2.5-2.2-4.2-.5z"/></svg>